<svg width="720" height="480" viewBox="0 0 720 480" fill="none" xmlns="http://www.w3.org/2000/svg" role="img" aria-label="ThoughtAI mark">
  <defs>
    <linearGradient id="g1" x1="110" y1="70" x2="640" y2="430" gradientUnits="userSpaceOnUse">
      <stop stop-color="#60A5FA" stop-opacity="0.95"/>
      <stop offset="0.55" stop-color="#6EE7B7" stop-opacity="0.9"/>
      <stop offset="1" stop-color="#A78BFA" stop-opacity="0.75"/>
    </linearGradient>
    <radialGradient id="g2" cx="0" cy="0" r="1" gradientUnits="userSpaceOnUse" gradientTransform="translate(360 210) rotate(90) scale(190 280)">
      <stop stop-color="white" stop-opacity="0.22"/>
      <stop offset="1" stop-color="white" stop-opacity="0"/>
    </radialGradient>
    <filter id="shadow" x="0" y="0" width="720" height="480" filterUnits="userSpaceOnUse" color-interpolation-filters="sRGB">
      <feDropShadow dx="0" dy="18" stdDeviation="24" flood-color="#000000" flood-opacity="0.35"/>
    </filter>
  </defs>
  <rect x="40" y="40" width="640" height="400" rx="40" fill="rgba(255,255,255,0.04)" stroke="rgba(255,255,255,0.10)" filter="url(#shadow)"/>
  <circle cx="360" cy="225" r="150" fill="url(#g2)"/>
  <path d="M360 98c88.4 0 160 63.7 160 142.3S448.4 382.6 360 382.6 200 318.9 200 240.3 271.6 98 360 98Z" fill="url(#g1)" fill-opacity="0.18" stroke="url(#g1)" stroke-opacity="0.65" stroke-width="3"/>
  <path d="M270 240.5c22.5-52.8 72-89.5 130.3-89.5 28.6 0 55.3 8.7 77.5 23.6" stroke="#6EE7B7" stroke-opacity="0.7" stroke-width="4" stroke-linecap="round"/>
  <path d="M450 240.5c-18.7 44.2-60.2 75.3-109.7 75.3-25.8 0-49.9-8.4-69.4-22.6" stroke="#60A5FA" stroke-opacity="0.7" stroke-width="4" stroke-linecap="round"/>
  <circle cx="274" cy="240" r="8" fill="#6EE7B7" fill-opacity="0.85"/>
  <circle cx="450" cy="241" r="8" fill="#60A5FA" fill-opacity="0.85"/>
  <text x="360" y="265" text-anchor="middle" font-family="Inter, system-ui, -apple-system, Segoe UI, Arial, sans-serif" font-size="52" font-weight="800" fill="#E6EEF3" letter-spacing="-1.2">ThoughtAI</text>
  <text x="360" y="305" text-anchor="middle" font-family="Inter, system-ui, -apple-system, Segoe UI, Arial, sans-serif" font-size="18" font-weight="600" fill="#9AA8B2">Click to enter</text>
</svg>
